<mxfile host="app.diagrams.net" modified="2024-04-21T05:20:50.320Z" agent="Mozilla/5.0 (Windows NT 10.0; Win64; x64) AppleWebKit/537.36 (KHTML, like Gecko) Chrome/124.0.0.0 Safari/537.36" etag="uKHTfbFOLKvhl1OV9Mbv" version="24.2.5" type="device">
  <diagram name="페이지-1" id="W01mYqB8Z3rBCW20Hj_4">
    <mxGraphModel dx="1050" dy="618" grid="1" gridSize="10" guides="1" tooltips="1" connect="1" arrows="1" fold="1" page="1" pageScale="1" pageWidth="827" pageHeight="1169" math="0" shadow="0">
      <root>
        <mxCell id="0" />
        <mxCell id="1" parent="0" />
        <mxCell id="LLniUgNEvL42cW3UsTzD-1" value="" style="swimlane;startSize=0;" vertex="1" parent="1">
          <mxGeometry x="190" y="210" width="460" height="580" as="geometry" />
        </mxCell>
        <mxCell id="LLniUgNEvL42cW3UsTzD-7" value="Upload profile" style="ellipse;whiteSpace=wrap;html=1;" vertex="1" parent="LLniUgNEvL42cW3UsTzD-1">
          <mxGeometry x="160" y="30" width="140" height="70" as="geometry" />
        </mxCell>
        <mxCell id="LLniUgNEvL42cW3UsTzD-9" value="Search other user" style="ellipse;whiteSpace=wrap;html=1;" vertex="1" parent="LLniUgNEvL42cW3UsTzD-1">
          <mxGeometry x="300" y="90" width="140" height="70" as="geometry" />
        </mxCell>
        <mxCell id="LLniUgNEvL42cW3UsTzD-8" value="Make appointmemt" style="ellipse;whiteSpace=wrap;html=1;" vertex="1" parent="LLniUgNEvL42cW3UsTzD-1">
          <mxGeometry x="176" y="195" width="140" height="70" as="geometry" />
        </mxCell>
        <mxCell id="LLniUgNEvL42cW3UsTzD-25" value="&amp;lt;&amp;lt;Include&amp;gt;&amp;gt;" style="endArrow=open;endSize=12;dashed=1;html=1;rounded=0;exitX=0.5;exitY=0;exitDx=0;exitDy=0;entryX=0;entryY=1;entryDx=0;entryDy=0;" edge="1" parent="LLniUgNEvL42cW3UsTzD-1" source="LLniUgNEvL42cW3UsTzD-8" target="LLniUgNEvL42cW3UsTzD-9">
          <mxGeometry width="160" relative="1" as="geometry">
            <mxPoint x="146" y="320" as="sourcePoint" />
            <mxPoint x="296" y="160" as="targetPoint" />
          </mxGeometry>
        </mxCell>
        <mxCell id="LLniUgNEvL42cW3UsTzD-26" value="Run safety check" style="ellipse;whiteSpace=wrap;html=1;" vertex="1" parent="LLniUgNEvL42cW3UsTzD-1">
          <mxGeometry x="20" y="380" width="140" height="70" as="geometry" />
        </mxCell>
        <mxCell id="LLniUgNEvL42cW3UsTzD-27" value="&amp;lt;&amp;lt;Extend&amp;gt;&amp;gt;" style="endArrow=open;endSize=12;dashed=1;html=1;rounded=0;exitX=0;exitY=1;exitDx=0;exitDy=0;entryX=0.5;entryY=0;entryDx=0;entryDy=0;" edge="1" parent="LLniUgNEvL42cW3UsTzD-1" source="LLniUgNEvL42cW3UsTzD-8" target="LLniUgNEvL42cW3UsTzD-26">
          <mxGeometry width="160" relative="1" as="geometry">
            <mxPoint x="146" y="320" as="sourcePoint" />
            <mxPoint x="306" y="320" as="targetPoint" />
          </mxGeometry>
        </mxCell>
        <mxCell id="LLniUgNEvL42cW3UsTzD-29" value="Create feedback" style="ellipse;whiteSpace=wrap;html=1;" vertex="1" parent="LLniUgNEvL42cW3UsTzD-1">
          <mxGeometry x="270" y="380" width="140" height="70" as="geometry" />
        </mxCell>
        <mxCell id="LLniUgNEvL42cW3UsTzD-30" value="&amp;lt;&amp;lt;Extend&amp;gt;&amp;gt;" style="endArrow=open;endSize=12;dashed=1;html=1;rounded=0;exitX=0.551;exitY=1.02;exitDx=0;exitDy=0;exitPerimeter=0;entryX=0.369;entryY=0.051;entryDx=0;entryDy=0;entryPerimeter=0;" edge="1" parent="LLniUgNEvL42cW3UsTzD-1" source="LLniUgNEvL42cW3UsTzD-8" target="LLniUgNEvL42cW3UsTzD-29">
          <mxGeometry width="160" relative="1" as="geometry">
            <mxPoint x="140" y="310" as="sourcePoint" />
            <mxPoint x="300" y="310" as="targetPoint" />
          </mxGeometry>
        </mxCell>
        <mxCell id="LLniUgNEvL42cW3UsTzD-2" value="Requestor" style="shape=umlActor;verticalLabelPosition=bottom;verticalAlign=top;html=1;outlineConnect=0;" vertex="1" parent="1">
          <mxGeometry x="40" y="360" width="80" height="140" as="geometry" />
        </mxCell>
        <mxCell id="LLniUgNEvL42cW3UsTzD-3" value="Volunteer" style="shape=umlActor;verticalLabelPosition=bottom;verticalAlign=top;html=1;outlineConnect=0;" vertex="1" parent="1">
          <mxGeometry x="710" y="320" width="80" height="140" as="geometry" />
        </mxCell>
        <mxCell id="LLniUgNEvL42cW3UsTzD-10" value="" style="endArrow=none;html=1;edgeStyle=orthogonalEdgeStyle;rounded=0;entryX=0;entryY=0.5;entryDx=0;entryDy=0;" edge="1" parent="1" source="LLniUgNEvL42cW3UsTzD-2" target="LLniUgNEvL42cW3UsTzD-8">
          <mxGeometry relative="1" as="geometry">
            <mxPoint x="330" y="520" as="sourcePoint" />
            <mxPoint x="490" y="520" as="targetPoint" />
          </mxGeometry>
        </mxCell>
        <mxCell id="LLniUgNEvL42cW3UsTzD-11" value="1" style="edgeLabel;resizable=0;html=1;align=left;verticalAlign=bottom;" connectable="0" vertex="1" parent="LLniUgNEvL42cW3UsTzD-10">
          <mxGeometry x="-1" relative="1" as="geometry" />
        </mxCell>
        <mxCell id="LLniUgNEvL42cW3UsTzD-12" value="1" style="edgeLabel;resizable=0;html=1;align=right;verticalAlign=bottom;" connectable="0" vertex="1" parent="LLniUgNEvL42cW3UsTzD-10">
          <mxGeometry x="1" relative="1" as="geometry" />
        </mxCell>
        <mxCell id="LLniUgNEvL42cW3UsTzD-13" value="" style="endArrow=none;html=1;edgeStyle=orthogonalEdgeStyle;rounded=0;exitX=1.029;exitY=0.654;exitDx=0;exitDy=0;exitPerimeter=0;" edge="1" parent="1" source="LLniUgNEvL42cW3UsTzD-8" target="LLniUgNEvL42cW3UsTzD-3">
          <mxGeometry relative="1" as="geometry">
            <mxPoint x="330" y="520" as="sourcePoint" />
            <mxPoint x="690" y="400" as="targetPoint" />
            <Array as="points">
              <mxPoint x="691" y="451" />
              <mxPoint x="691" y="390" />
            </Array>
          </mxGeometry>
        </mxCell>
        <mxCell id="LLniUgNEvL42cW3UsTzD-14" value="1" style="edgeLabel;resizable=0;html=1;align=left;verticalAlign=bottom;" connectable="0" vertex="1" parent="LLniUgNEvL42cW3UsTzD-13">
          <mxGeometry x="-1" relative="1" as="geometry" />
        </mxCell>
        <mxCell id="LLniUgNEvL42cW3UsTzD-15" value="1" style="edgeLabel;resizable=0;html=1;align=right;verticalAlign=bottom;" connectable="0" vertex="1" parent="LLniUgNEvL42cW3UsTzD-13">
          <mxGeometry x="1" relative="1" as="geometry" />
        </mxCell>
        <mxCell id="LLniUgNEvL42cW3UsTzD-16" value="" style="endArrow=none;html=1;edgeStyle=orthogonalEdgeStyle;rounded=0;entryX=0;entryY=0.5;entryDx=0;entryDy=0;" edge="1" parent="1" target="LLniUgNEvL42cW3UsTzD-7">
          <mxGeometry relative="1" as="geometry">
            <mxPoint x="140" y="400" as="sourcePoint" />
            <mxPoint x="490" y="520" as="targetPoint" />
          </mxGeometry>
        </mxCell>
        <mxCell id="LLniUgNEvL42cW3UsTzD-17" value="1" style="edgeLabel;resizable=0;html=1;align=left;verticalAlign=bottom;" connectable="0" vertex="1" parent="LLniUgNEvL42cW3UsTzD-16">
          <mxGeometry x="-1" relative="1" as="geometry" />
        </mxCell>
        <mxCell id="LLniUgNEvL42cW3UsTzD-18" value="1" style="edgeLabel;resizable=0;html=1;align=right;verticalAlign=bottom;" connectable="0" vertex="1" parent="LLniUgNEvL42cW3UsTzD-16">
          <mxGeometry x="1" relative="1" as="geometry" />
        </mxCell>
        <mxCell id="LLniUgNEvL42cW3UsTzD-22" value="" style="endArrow=none;html=1;edgeStyle=orthogonalEdgeStyle;rounded=0;exitX=0.963;exitY=0.657;exitDx=0;exitDy=0;exitPerimeter=0;" edge="1" parent="1" source="LLniUgNEvL42cW3UsTzD-7">
          <mxGeometry relative="1" as="geometry">
            <mxPoint x="340" y="520" as="sourcePoint" />
            <mxPoint x="710" y="330" as="targetPoint" />
            <Array as="points">
              <mxPoint x="670" y="286" />
              <mxPoint x="670" y="330" />
            </Array>
          </mxGeometry>
        </mxCell>
        <mxCell id="LLniUgNEvL42cW3UsTzD-23" value="1" style="edgeLabel;resizable=0;html=1;align=left;verticalAlign=bottom;" connectable="0" vertex="1" parent="LLniUgNEvL42cW3UsTzD-22">
          <mxGeometry x="-1" relative="1" as="geometry" />
        </mxCell>
        <mxCell id="LLniUgNEvL42cW3UsTzD-24" value="1" style="edgeLabel;resizable=0;html=1;align=right;verticalAlign=bottom;" connectable="0" vertex="1" parent="LLniUgNEvL42cW3UsTzD-22">
          <mxGeometry x="1" relative="1" as="geometry" />
        </mxCell>
        <mxCell id="LLniUgNEvL42cW3UsTzD-28" value="Appointment system" style="text;align=center;fontStyle=1;verticalAlign=middle;spacingLeft=3;spacingRight=3;strokeColor=none;rotatable=0;points=[[0,0.5],[1,0.5]];portConstraint=eastwest;html=1;" vertex="1" parent="1">
          <mxGeometry x="330" y="174" width="170" height="26" as="geometry" />
        </mxCell>
      </root>
    </mxGraphModel>
  </diagram>
</mxfile>
